<svg width="72" height="72" viewBox="0 0 72 72" fill="none" xmlns="http://www.w3.org/2000/svg">
<path fill-rule="evenodd" clip-rule="evenodd" d="M33.6552 18H14V21H32.3195L33.6552 18Z" fill="black"/>
<path fill-rule="evenodd" clip-rule="evenodd" d="M22.2099 34H14V37H20.8743L22.2099 34Z" fill="black"/>
<path fill-rule="evenodd" clip-rule="evenodd" d="M29.2374 26H14V29H27.9018L29.2374 26Z" fill="black"/>
<path d="M37.0909 62H8V13.7143L12.4444 10H48V35.5" stroke="black" stroke-width="3"/>
<path fill-rule="evenodd" clip-rule="evenodd" d="M37.1073 45.8829C36.5868 45.1129 36.1745 44.0088 36.0436 42.4271C37.8429 41.9679 40.047 41.7859 41.8429 42.3578C42.8849 42.6897 43.7551 43.2619 44.3793 44.1628C44.8952 44.9073 45.3023 45.9622 45.4328 47.462C43.6268 47.9924 41.4127 48.2403 39.62 47.6887C38.5946 47.3732 37.7317 46.8065 37.1073 45.8829ZM48.1768 45.5918C47.9063 44.3809 47.457 43.3372 46.8452 42.4542C45.7798 40.9166 44.3106 39.9953 42.7532 39.4993C39.7203 38.5334 36.2412 39.1344 34.0093 39.907L33 40.2564V41.3245C33 43.9354 33.5663 46.0014 34.622 47.563C35.6872 49.1388 37.1637 50.0717 38.7377 50.556C41.7934 51.4963 45.2866 50.7798 47.5153 49.9227L48.1768 49.6683L48.8382 49.9227C51.0669 50.7798 54.5601 51.4963 57.6158 50.556C59.1898 50.0717 60.6663 49.1388 61.7315 47.563C62.7873 46.0014 63.3535 43.9354 63.3535 41.3245V40.2564L62.3442 39.907C60.1123 39.1344 56.6332 38.5334 53.6003 39.4993C52.0429 39.9953 50.5737 40.9166 49.5083 42.4542C48.8965 43.3372 48.4472 44.3809 48.1768 45.5918ZM59.2462 45.8829C59.7667 45.1129 60.1791 44.0088 60.3099 42.4271C58.5106 41.9679 56.3066 41.7859 54.5106 42.3578C53.4687 42.6897 52.5984 43.2619 51.9742 44.1628C51.4584 44.9073 51.0512 45.9622 50.9207 47.462C52.7267 47.9924 54.9408 48.2403 56.7335 47.6887C57.7589 47.3732 58.6218 46.8065 59.2462 45.8829Z" fill="black"/>
<path fill-rule="evenodd" clip-rule="evenodd" d="M46.8438 46.9609V62.6497H46.9981L49.8438 59.8041L49.8438 46.9609H46.8438Z" fill="black"/>
</svg>
