<svg width="24" height="25" viewBox="0 0 24 25" fill="none" xmlns="http://www.w3.org/2000/svg">
<path d="M7.05822 24.009C6.06318 23.988 5.07875 23.7997 4.14622 23.452C3.3455 23.1495 2.6201 22.6766 2.02022 22.066C1.40966 21.4686 0.936972 20.7451 0.635221 19.946C0.287145 19.0128 0.0981864 18.0278 0.0762207 17.032C0.0162207 15.752 0.0012207 15.344 0.0012207 12.084C0.0012207 8.82398 0.0162207 8.41798 0.0762207 7.13898C0.0981864 6.14321 0.287145 5.1582 0.635221 4.22498C0.936098 3.42339 1.40883 2.69739 2.02022 2.09798C2.61701 1.48626 3.3421 1.01459 4.14322 0.716984C5.07528 0.367164 6.05989 0.177817 7.05522 0.156984C8.33522 0.0989844 8.74222 0.0839844 12.0012 0.0839844C15.2602 0.0839844 15.6652 0.0989844 16.9432 0.153984C17.9391 0.175854 18.9242 0.365164 19.8572 0.713984C20.6531 1.02188 21.3762 1.49206 21.9805 2.09463C22.5848 2.6972 23.0571 3.41896 23.3672 4.21398C23.718 5.14678 23.9071 6.13259 23.9262 7.12898C23.9862 8.40898 23.9992 8.81598 23.9992 12.075C23.9992 15.334 23.9862 15.743 23.9262 17.021C23.9051 18.0175 23.7161 19.0033 23.3672 19.937C23.0591 20.7331 22.5889 21.4565 21.9864 22.0613C21.3839 22.6661 20.6622 23.139 19.8672 23.45C18.9335 23.7984 17.9476 23.9867 16.9512 24.007C15.6722 24.067 15.2622 24.082 12.0072 24.082C8.75222 24.082 8.34122 24.07 7.05822 24.009ZM7.15822 2.31698C6.3965 2.32695 5.64204 2.46662 4.92722 2.72998C4.40797 2.92518 3.93815 3.23248 3.55122 3.62998C3.15283 4.01696 2.84542 4.48764 2.65122 5.00798C2.38732 5.72199 2.24731 6.47583 2.23722 7.23698C2.17822 8.49998 2.16722 8.87898 2.16722 12.084C2.16722 15.289 2.18022 15.668 2.23622 16.932C2.24819 17.6926 2.38815 18.4458 2.65022 19.16C2.84451 19.6803 3.1519 20.1509 3.55022 20.538C3.93687 20.9358 4.40677 21.2432 4.92622 21.438C5.64024 21.7045 6.39513 21.8449 7.15722 21.853C8.42122 21.913 8.80122 21.922 12.0042 21.922C15.2072 21.922 15.5852 21.909 16.8512 21.853C17.6114 21.8425 18.3643 21.7022 19.0772 21.438C19.5988 21.2451 20.0704 20.9375 20.4572 20.538C20.8555 20.1509 21.1629 19.6803 21.3572 19.16C21.6212 18.4463 21.7612 17.6928 21.7712 16.932C21.8292 15.667 21.8392 15.286 21.8392 12.084C21.8392 8.88198 21.8262 8.50198 21.7712 7.23698C21.7592 6.47602 21.6193 5.72251 21.3572 5.00798C21.163 4.48764 20.8556 4.01696 20.4572 3.62998C20.0701 3.23077 19.5986 2.92325 19.0772 2.72998C18.3647 2.46472 17.6115 2.32499 16.8512 2.31698C15.5842 2.25698 15.2012 2.24598 12.0012 2.24598C8.80122 2.24598 8.42022 2.25698 7.15622 2.31698H7.15822ZM5.84222 12.084C5.84242 10.8657 6.20389 9.67474 6.88092 8.66184C7.55796 7.64894 8.52015 6.85956 9.64581 6.3935C10.7715 5.92745 12.0101 5.80566 13.205 6.04354C14.3998 6.28142 15.4974 6.86828 16.3587 7.72991C17.2201 8.59155 17.8066 9.68925 18.0441 10.8842C18.2815 12.0792 18.1594 13.3177 17.6929 14.4432C17.2265 15.5688 16.4368 16.5307 15.4237 17.2074C14.4106 17.8841 13.2196 18.2452 12.0012 18.245C10.3677 18.2442 8.80124 17.5948 7.64632 16.4395C6.4914 15.2842 5.84249 13.7176 5.84222 12.084ZM8.00122 12.084C8.00122 12.8751 8.23582 13.6485 8.67534 14.3063C9.11487 14.9641 9.73958 15.4768 10.4705 15.7795C11.2014 16.0823 12.0057 16.1615 12.7816 16.0071C13.5575 15.8528 14.2702 15.4718 14.8296 14.9124C15.3891 14.353 15.77 13.6403 15.9244 12.8643C16.0787 12.0884 15.9995 11.2842 15.6967 10.5533C15.394 9.82235 14.8813 9.19763 14.2235 8.75811C13.5657 8.31858 12.7923 8.08398 12.0012 8.08398C10.9404 8.08398 9.92294 8.50541 9.17279 9.25556C8.42265 10.0057 8.00122 11.0231 8.00122 12.084ZM16.9672 5.68398C16.9658 5.39839 17.0494 5.11883 17.2072 4.88078C17.365 4.64274 17.5899 4.45696 17.8535 4.34703C18.1171 4.2371 18.4074 4.20797 18.6876 4.26335C18.9678 4.31873 19.2252 4.45611 19.4271 4.65806C19.6291 4.86001 19.7665 5.11741 19.8219 5.39759C19.8772 5.67777 19.8481 5.96808 19.7382 6.23167C19.6282 6.49526 19.4425 6.72025 19.2044 6.87805C18.9664 7.03586 18.6868 7.11937 18.4012 7.11798C18.0201 7.1164 17.6551 6.96388 17.3862 6.69381C17.1172 6.42374 16.9662 6.05812 16.9662 5.67698L16.9672 5.68398Z" fill="#939598"/>
</svg>
