<svg width="152" height="22" viewBox="0 0 152 22" fill="none" xmlns="http://www.w3.org/2000/svg">
<path d="M1.35847 13.0323C3.8037 14.1815 6.02665 14.7137 8.79298 14.7137C11.8804 14.7137 13.6094 14.0363 13.6094 12.8145C13.6094 9.66936 0.172896 13.1774 0.172896 5.88306C0.172896 2.47177 3.13682 0.5 8.54599 0.5C11.8557 0.5 14.5973 1.22581 17.0673 2.44758L15.6841 5.56855C13.2389 4.46774 11.1147 3.98387 8.44719 3.98387C5.53266 3.98387 3.9766 4.58871 3.9766 5.68952C3.9766 8.90726 17.6107 5.35081 17.6107 12.6452C17.6107 16.1532 14.4244 18.2097 8.69418 18.2097C5.23627 18.2097 2.44524 17.4234 0 16.1653L1.35847 13.0323ZM20.5005 15.0645L26.6506 1.32258H33.8134L39.9883 15.0645V17.8226H36.1105V16.1774L35.6906 15.1855H24.7982L24.3783 16.1774V17.8226H20.5005V15.0645ZM34.258 11.8226L31.2941 4.78226H29.17L26.206 11.8226H34.258ZM44.286 1.32258H50.3373L54.8079 9.62097L59.2785 1.32258H65.3299V17.8226H61.4521V4.92742L56.4628 13.879H53.1531L48.1638 4.92742V17.8226H44.286V1.32258ZM73.1596 1.32258L77.2103 10.4677H79.8778L83.9038 1.32258H88.2262L79.1615 21.5H74.765L78.1982 13.9274H74.518L68.8372 1.32258H73.1596ZM88.0039 15.0645L94.154 1.32258H101.317L107.492 15.0645V17.8226H103.614V16.1774L103.194 15.1855H92.3016L91.8817 16.1774V17.8226H88.0039V15.0645ZM101.761 11.8226L98.7975 4.78226H96.6734L93.7094 11.8226H101.761ZM111.789 1.32258H115.717L125.325 12.2097V1.32258H129.202V17.8226H125.275L115.667 6.93548V17.8226H111.789V1.32258ZM143.355 18.2097C137.452 18.2097 133.352 14.6532 133.352 9.54839C133.352 4.46774 137.452 0.935484 143.355 0.935484C145.875 0.935484 148.666 1.58871 151.407 2.79839L149.975 6.04032C147.48 5.02419 145.208 4.49194 143.355 4.49194C139.724 4.49194 137.304 6.52419 137.304 9.54839C137.304 12.5968 139.7 14.6532 143.355 14.6532C145.306 14.6532 147.035 14.3387 148.122 13.879V11.7742H143.454V8.50806H152V16.2258C150.148 17.3871 146.541 18.2097 143.355 18.2097Z" fill="white"/>
</svg>
