<svg width="72" height="72" viewBox="0 0 72 72" fill="none" xmlns="http://www.w3.org/2000/svg">
<g clip-path="url(#clip0_139_465)">
<path d="M24.1719 12.1821L27.7919 15.8021L15.601 27.9891L11.981 24.3691" stroke="black" stroke-width="3" stroke-linecap="square"/>
<path d="M16.5089 27.0891C16.5089 27.0891 19.3169 30.1191 19.8859 33.2161C20.3339 35.6521 23.8859 37.8891 23.8859 37.8891" stroke="black" stroke-width="3" stroke-linecap="square"/>
<path d="M27.1199 16.4741C28.9307 18.6731 31.4747 20.1444 34.2839 20.6171C37.0459 21.0901 41.1569 26.3391 41.1569 26.3391" stroke="black" stroke-width="3" stroke-linecap="square"/>
<path d="M59.981 24.307L56.361 27.927L44.1689 15.735L47.7889 12.115" stroke="black" stroke-width="3" stroke-linecap="square"/>
<path d="M45.0779 16.6431C45.0779 16.6431 42.0479 19.4521 38.9509 20.0211" stroke="black" stroke-width="3" stroke-linecap="square"/>
<path d="M55.689 27.2549C55.689 27.2549 52.5889 28.6109 51.7799 33.3549" stroke="black" stroke-width="3" stroke-linecap="square"/>
<path d="M24.5729 59.8889L28.1929 56.2689L16.0009 44.0769L12.3809 47.6969" stroke="black" stroke-width="3" stroke-linecap="square"/>
<path d="M16.9099 44.9829C16.9099 44.9829 19.7179 41.953 20.2869 38.856" stroke="black" stroke-width="3" stroke-linecap="square"/>
<path d="M27.5209 55.5941C27.5209 55.5941 28.8768 52.4941 33.6208 51.6851" stroke="black" stroke-width="3" stroke-linecap="square"/>
<path d="M38.1458 39.9888L29.0258 30.5828C28.8568 30.4138 28.7227 30.2131 28.6312 29.9923C28.5398 29.7715 28.4927 29.5348 28.4927 29.2958C28.4927 29.0568 28.5398 28.8201 28.6312 28.5993C28.7227 28.3785 28.8568 28.1778 29.0258 28.0088C29.3673 27.6677 29.8302 27.4761 30.3128 27.4761C30.7955 27.4761 31.2583 27.6677 31.5998 28.0088L40.7358 37.1448" stroke="black" stroke-width="3" stroke-linecap="square"/>
<path d="M32.4989 28.8989L33.8549 27.5428C34.0149 27.3828 34.2048 27.2559 34.4139 27.1693C34.623 27.0826 34.8471 27.0381 35.0734 27.0381C35.2997 27.0381 35.5238 27.0826 35.7328 27.1693C35.9419 27.2559 36.1319 27.3828 36.2919 27.5428L44.2429 35.4939" stroke="black" stroke-width="3" stroke-linecap="square"/>
<path d="M29.791 31.5439L28.5169 32.8179C28.3461 32.9886 28.2107 33.1912 28.1183 33.4143C28.0259 33.6374 27.9783 33.8765 27.9783 34.1179C27.9783 34.3594 28.0259 34.5985 28.1183 34.8215C28.2107 35.0446 28.3461 35.2472 28.5169 35.4179L36.387 43.2879" stroke="black" stroke-width="3" stroke-linecap="square"/>
<path d="M29.7909 37.6609L28.5168 38.9349C28.346 39.1055 28.2104 39.3081 28.1179 39.5312C28.0254 39.7543 27.9778 39.9934 27.9778 40.2349C27.9778 40.4764 28.0254 40.7155 28.1179 40.9385C28.2104 41.1616 28.346 41.3642 28.5168 41.5349L36.3869 49.4048C36.3869 49.4048 39.5099 52.1789 41.5489 52.7049C42.8689 53.0439 44.2429 55.2449 44.2429 55.2449" stroke="black" stroke-width="3" stroke-linecap="square"/>
<path d="M41.0969 31.884L42.3849 30.595C42.7259 30.254 43.1883 30.0625 43.6704 30.0625C44.1526 30.0625 44.615 30.254 44.9559 30.595L50.2789 35.918C51.4427 37.38 52.1193 39.1698 52.2139 41.036C52.3139 42.766 55.0919 44.287 55.0919 44.287" stroke="black" stroke-width="3" stroke-linecap="square"/>
<path d="M59.822 47.694L56.202 44.074L44.01 56.266L47.63 59.886" stroke="black" stroke-width="3" stroke-linecap="square"/>
</g>
<defs>
<clipPath id="clip0_139_465">
<rect width="72" height="72" fill="white"/>
</clipPath>
</defs>
</svg>
