<svg width="72" height="72" viewBox="0 0 72 72" fill="none" xmlns="http://www.w3.org/2000/svg">
<path fill-rule="evenodd" clip-rule="evenodd" d="M22.7698 11.3171C26.1276 12.2089 28.8224 14.0532 30.9418 16.3079L27.564 17.2129C25.995 15.8463 24.1531 14.7885 21.9998 14.2166C19.4923 13.5506 16.4707 13.5189 12.8379 14.5345C13.6679 17.5683 15.3561 21.7924 18.3856 24.8181C20.1138 26.5441 22.2619 27.8649 24.9472 28.3844C26.9676 28.7753 29.3608 28.7257 32.1926 27.9817L24 22.8879V19.3553L36.4972 27.1255L36.2548 29.7951C31.673 31.5991 27.738 31.98 24.3774 31.3298C21.0121 30.6788 18.3448 29.0172 16.2657 26.9408C12.1587 22.839 10.2856 17.0634 9.57715 13.8407L10.5644 12.0968C15.2534 10.5213 19.3068 10.3973 22.7698 11.3171Z" fill="black"/>
<path fill-rule="evenodd" clip-rule="evenodd" d="M33.9249 28.4096C33.8652 20.8056 36.2518 15.1513 41.1228 12.23C45.916 9.35532 52.6359 9.43097 60.5657 12.0953L61.5529 13.8392C60.846 17.0552 58.9795 22.8122 54.8916 26.912C52.8224 28.9873 50.1679 30.6525 46.8184 31.3154C43.9589 31.8813 40.6814 31.6993 36.9414 30.5256L36.9405 47.3312L33.9249 45.4878V28.4096ZM46.236 28.3725C43.7453 28.8654 40.6858 28.6881 36.933 27.3606C37.0899 20.9305 39.2349 16.8604 42.6658 14.8027C46.1375 12.7206 51.3651 12.4202 58.296 14.519C57.4695 17.546 55.7872 21.7649 52.7672 24.7938C51.0462 26.5198 48.9079 27.8437 46.236 28.3725Z" fill="black"/>
<path fill-rule="evenodd" clip-rule="evenodd" d="M48 19.3625V22.7698L36.7109 28.8485L35.2886 26.2071L48 19.3625Z" fill="black"/>
<path fill-rule="evenodd" clip-rule="evenodd" d="M64 64.0273H8V61.0273H64V64.0273Z" fill="black"/>
<path fill-rule="evenodd" clip-rule="evenodd" d="M59 56.0273H13V53.0273H59V56.0273Z" fill="black"/>
</svg>
