<svg width="72" height="72" viewBox="0 0 72 72" fill="none" xmlns="http://www.w3.org/2000/svg">
<g clip-path="url(#clip0_139_530)">
<path d="M9.77197 37.828V35.235H15.19C15.4475 33.1987 15.9936 31.2094 16.812 29.327L12.148 26.646L14.77 22.1L19.459 24.815C20.7027 23.1843 22.1698 21.7368 23.817 20.515L21.122 15.853L25.664 13.231L28.4 17.908C30.2803 17.1243 32.2619 16.6099 34.286 16.38V11H39.531V16.418C41.558 16.6741 43.5384 17.2165 45.413 18.029L48.119 13.376L52.661 15.998L49.936 20.68C51.5663 21.9218 53.0138 23.3869 54.236 25.032L58.908 22.35L61.53 26.891L56.853 29.628C57.6375 31.5092 58.1522 33.4918 58.382 35.517H63.766V38.01" stroke="black" stroke-width="3"/>
<path d="M28.512 46.6401V42.1241C28.5118 41.519 28.6309 40.9198 28.8624 40.3608C29.0938 39.8017 29.4332 39.2937 29.861 38.8658C30.2888 38.4379 30.7967 38.0985 31.3557 37.8669C31.9147 37.6353 32.5139 37.5161 33.119 37.5161H40.425C41.6471 37.5161 42.8191 38.0016 43.6833 38.8658C44.5475 39.7299 45.033 40.902 45.033 42.1241V46.6401" stroke="black" stroke-width="3"/>
<path d="M37.142 25.1421H36.469C34.7464 25.1421 33.35 26.5385 33.35 28.2611V30.6621C33.35 32.3847 34.7464 33.7811 36.469 33.7811H37.142C38.8646 33.7811 40.261 32.3847 40.261 30.6621V28.2611C40.261 26.5385 38.8646 25.1421 37.142 25.1421Z" stroke="black" stroke-width="3" stroke-linecap="round" stroke-linejoin="round"/>
<path d="M39.9411 38.0758C39.8102 37.2578 39.0409 36.7009 38.2228 36.8319C37.4048 36.9628 36.8479 37.7321 36.9789 38.5501L39.9411 38.0758ZM38.794 40.399L40.2752 40.1621L40.2751 40.1618L38.794 40.399ZM39.424 44.338L40.4998 45.3832L41.024 44.8438L40.9052 44.1011L39.424 44.338ZM36.964 46.87L35.889 47.9161L36.9649 49.0217L38.0398 47.9152L36.964 46.87ZM34.5 44.338L33.0188 44.1013L32.9 44.8446L33.425 45.3841L34.5 44.338ZM35.137 40.352L33.6558 40.1152L33.6558 40.1153L35.137 40.352ZM36.9789 38.5501L37.3129 40.6361L40.2751 40.1618L39.9411 38.0758L36.9789 38.5501ZM37.3128 40.6359L37.9428 44.5749L40.9052 44.1011L40.2752 40.1621L37.3128 40.6359ZM38.3482 43.2927L35.8882 45.8247L38.0398 47.9152L40.4998 45.3832L38.3482 43.2927ZM38.039 45.8239L35.575 43.2919L33.425 45.3841L35.889 47.9161L38.039 45.8239ZM35.9812 44.5747L36.6182 40.5887L33.6558 40.1153L33.0188 44.1013L35.9812 44.5747ZM36.6182 40.5888L36.9442 38.5498L33.9818 38.0762L33.6558 40.1152L36.6182 40.5888Z" fill="black"/>
<path d="M9.97192 61.0151V56.5001C9.97192 55.2781 10.4573 54.1062 11.3212 53.2421C12.1852 52.378 13.357 51.8924 14.5789 51.8921H21.8849C23.107 51.8921 24.2791 52.3776 25.1433 53.2417C26.0074 54.1059 26.4929 55.278 26.4929 56.5001V61.0161" stroke="black" stroke-width="3"/>
<path d="M18.6019 39.5161H17.9289C16.2064 39.5161 14.8099 40.9125 14.8099 42.6351V45.0361C14.8099 46.7587 16.2064 48.1551 17.9289 48.1551H18.6019C20.3245 48.1551 21.7209 46.7587 21.7209 45.0361V42.6351C21.7209 40.9125 20.3245 39.5161 18.6019 39.5161Z" stroke="black" stroke-width="3" stroke-linecap="round" stroke-linejoin="round"/>
<path d="M19.921 52.6882L20.255 54.7742L20.885 58.7132L18.425 61.2452L15.965 58.7132L16.602 54.7272L16.928 52.6882" stroke="black" stroke-width="3"/>
<path d="M46.45 61.0151V56.5001C46.45 55.278 46.9354 54.1059 47.7996 53.2417C48.6638 52.3776 49.8358 51.8921 51.0579 51.8921H58.3639C59.5861 51.8921 60.7581 52.3776 61.6223 53.2417C62.4865 54.1059 62.972 55.278 62.972 56.5001V61.0161" stroke="black" stroke-width="3"/>
<path d="M55.08 39.5161H54.407C52.6844 39.5161 51.288 40.9125 51.288 42.6351V45.0361C51.288 46.7587 52.6844 48.1551 54.407 48.1551H55.08C56.8025 48.1551 58.199 46.7587 58.199 45.0361V42.6351C58.199 40.9125 56.8025 39.5161 55.08 39.5161Z" stroke="black" stroke-width="3" stroke-linecap="round" stroke-linejoin="round"/>
<path d="M56.3999 52.6882L56.7339 54.7742L57.3639 58.7132L54.8999 61.2452L52.4399 58.7132L53.0769 54.7272L53.4029 52.6882" stroke="black" stroke-width="3"/>
</g>
<defs>
<clipPath id="clip0_139_530">
<rect width="72" height="72" fill="white"/>
</clipPath>
</defs>
</svg>
