<svg width="25" height="18" viewBox="0 0 25 18" fill="none" xmlns="http://www.w3.org/2000/svg">
<path d="M24.4797 3.06598C24.3367 2.53628 24.0572 2.05334 23.6693 1.66537C23.2813 1.27741 22.7984 0.997982 22.2687 0.854984C20.3197 0.333984 12.5007 0.333984 12.5007 0.333984C12.5007 0.333984 4.68567 0.333984 2.73367 0.854984C2.20373 0.997737 1.72054 1.27706 1.33237 1.66506C0.944206 2.05305 0.66466 2.53611 0.521667 3.06598C0.162173 5.05154 -0.0122423 7.06618 0.000667352 9.08398C-0.0121804 11.1014 0.162234 13.1158 0.521667 15.101C0.664573 15.6307 0.943968 16.1137 1.33195 16.5017C1.71993 16.8897 2.20292 17.1691 2.73267 17.312C4.68567 17.833 12.4997 17.833 12.4997 17.833C12.4997 17.833 20.3187 17.833 22.2677 17.312C22.7974 17.1691 23.2804 16.8897 23.6684 16.5017C24.0564 16.1137 24.3358 15.6307 24.4787 15.101C24.8384 13.1158 25.0131 11.1015 25.0007 9.08398C25.0134 7.06652 24.839 5.05123 24.4797 3.06598ZM10.0007 12.834V5.33398L16.5007 9.08398L10.0007 12.834Z" fill="#939598"/>
</svg>
